<?xml version="1.0" encoding="utf-8"?>
<!-- Generator: Adobe Illustrator 17.1.0, SVG Export Plug-In . SVG Version: 6.00 Build 0)  -->
<!DOCTYPE svg PUBLIC "-//W3C//DTD SVG 1.1//EN" "http://www.w3.org/Graphics/SVG/1.1/DTD/svg11.dtd">
<svg version="1.1" id="Laag_1" xmlns="http://www.w3.org/2000/svg" xmlns:xlink="http://www.w3.org/1999/xlink" x="0px" y="0px"
	 viewBox="0 0 30 30" enable-background="new 0 0 30 30" xml:space="preserve">
<g>
	<g>
		<path d="M4.3,14.7l3-2.9v0.8L4.8,15v0l2.5,2.4v0.8l-3-2.9V14.7z"/>
	</g>
	<g>
		<path d="M9.8,17.8c0-0.3,0-0.7,0-1v-4.9h0.7v2.5h0c0.3-0.4,0.7-0.7,1.4-0.7c1,0,1.7,0.8,1.7,2.1c0,1.4-0.9,2.2-1.8,2.2
			c-0.6,0-1-0.2-1.3-0.8h0l0,0.7H9.8z M10.6,16.2c0,0.1,0,0.2,0,0.3c0.1,0.5,0.6,0.9,1.1,0.9c0.8,0,1.2-0.6,1.2-1.5
			c0-0.8-0.4-1.5-1.2-1.5c-0.5,0-1,0.3-1.1,0.9c0,0.1,0,0.2,0,0.3V16.2z"/>
		<path d="M16.8,17.8l-0.1-0.5h0c-0.2,0.3-0.7,0.6-1.2,0.6c-0.8,0-1.2-0.6-1.2-1.2c0-1,0.9-1.5,2.4-1.5v-0.1c0-0.3-0.1-0.9-0.9-0.9
			c-0.4,0-0.8,0.1-1,0.3L14.5,14c0.3-0.2,0.8-0.4,1.3-0.4c1.2,0,1.5,0.8,1.5,1.6v1.5c0,0.3,0,0.7,0.1,1H16.8z M16.7,15.7
			c-0.8,0-1.7,0.1-1.7,0.9c0,0.5,0.3,0.7,0.7,0.7c0.5,0,0.9-0.3,1-0.7c0-0.1,0-0.2,0-0.2V15.7z"/>
		<path d="M21.4,17.6c-0.2,0.1-0.6,0.2-1.2,0.2c-1.2,0-2-0.8-2-2.1c0-1.2,0.8-2.1,2.2-2.1c0.4,0,0.8,0.1,1,0.2l-0.2,0.6
			c-0.2-0.1-0.4-0.2-0.8-0.2c-0.9,0-1.4,0.7-1.4,1.5c0,0.9,0.6,1.5,1.4,1.5c0.4,0,0.7-0.1,0.9-0.2L21.4,17.6z"/>
		<path d="M23,15.6L23,15.6c0.1-0.1,0.3-0.3,0.4-0.5l1.2-1.4h0.9l-1.6,1.7l1.8,2.4h-0.9l-1.4-1.9L23,16.3v1.5h-0.7v-5.9H23V15.6z"/>
	</g>
</g>
</svg>
