<?xml version="1.0" encoding="utf-8"?>
<!-- Generator: Adobe Illustrator 17.1.0, SVG Export Plug-In . SVG Version: 6.00 Build 0)  -->
<!DOCTYPE svg PUBLIC "-//W3C//DTD SVG 1.1//EN" "http://www.w3.org/Graphics/SVG/1.1/DTD/svg11.dtd">
<svg version="1.1" id="Laag_1" xmlns="http://www.w3.org/2000/svg" xmlns:xlink="http://www.w3.org/1999/xlink" x="0px" y="0px"
	 viewBox="0 0 30 30" enable-background="new 0 0 30 30" xml:space="preserve">
<g>
	<path d="M14.9,7.6c-4.8,0-8.7,3.9-8.7,8.7c0,2.1,0.7,4,2,5.5c0.2-1.5,1.7-2.8,3.8-3.4c0.8,0.7,1.8,1.2,2.9,1.2
		c1.1,0,2.1-0.4,2.8-1.1c2.1,0.7,3.6,2,3.7,3.6c1.4-1.5,2.2-3.5,2.2-5.7C23.6,11.5,19.7,7.6,14.9,7.6L14.9,7.6z M14.9,18.5
		c-0.6,0-1.1-0.2-1.5-0.4c-1.1-0.6-1.9-1.9-1.9-3.4c0-2.1,1.5-3.9,3.4-3.9c1.9,0,3.4,1.7,3.4,3.9c0,1.5-0.8,2.8-1.9,3.5
		C15.9,18.4,15.4,18.5,14.9,18.5L14.9,18.5z M14.9,18.5"/>
</g>
</svg>
